<svg preserveAspectRatio="none" width="100%" height="100%" overflow="visible" style="display: block;" viewBox="0 0 19.758 19.7227" fill="none" xmlns="http://www.w3.org/2000/svg">
<g id="Group">
<path id="Vector" d="M0.324906 6.54862H4.4207V19.7227H0.324906V6.54862ZM2.37291 0C3.68198 0 4.74583 1.06385 4.74583 2.37511C4.74583 3.68505 3.68198 4.7489 2.37291 4.7489C1.06077 4.7489 0 3.68505 0 2.37511C0 1.06385 1.06077 0 2.37291 0Z" fill="#32404F"/>
<path id="Vector_2" d="M6.98893 6.54855H10.9163V8.35003H10.9723C11.519 7.31384 12.855 6.22233 14.8464 6.22233C18.9927 6.22233 19.758 8.95001 19.758 12.4972V19.7226H15.6652V13.316C15.6652 11.7879 15.6387 9.82286 13.5375 9.82286C11.4068 9.82286 11.0817 11.4884 11.0817 13.2063V19.7226H6.98893V6.54855Z" fill="#32404F"/>
</g>
</svg>
