<svg viewBox="0 0 12 12" fill="none" xmlns="http://www.w3.org/2000/svg">
  <g transform="translate(0.192 2.063)">
    <path d="M4.06704 0.323206C4.02161 0.22657 3.94962 0.144861 3.85947 0.0876269C3.76933 0.0303931 3.66475 0 3.55797 0C3.45119 0 3.34662 0.0303931 3.25647 0.0876269C3.16633 0.144861 3.09434 0.22657 3.04891 0.323206L0.0489107 6.69821C-0.0111449 6.83265 -0.0160874 6.98528 0.0351444 7.12333C0.0863761 7.26138 0.189697 7.37384 0.322922 7.43655C0.456146 7.49927 0.608651 7.50724 0.74769 7.45876C0.88673 7.41029 1.00122 7.30922 1.06657 7.17727L1.79735 5.62524H5.3186L6.04891 7.17727C6.11244 7.31228 6.227 7.41653 6.36739 7.46707C6.50777 7.51762 6.66249 7.51033 6.7975 7.4468C6.93252 7.38327 7.03676 7.26871 7.08731 7.12832C7.13786 6.98794 7.13056 6.83322 7.06704 6.69821L4.06704 0.323206ZM2.32704 4.50024L3.55797 1.88367L4.78938 4.50024H2.32704ZM9.18297 1.87524C8.53375 1.87524 8.02188 2.05617 7.66188 2.41336C7.60527 2.46436 7.55961 2.52633 7.52767 2.59551C7.49574 2.66469 7.47819 2.73964 7.47609 2.8158C7.47399 2.89197 7.48739 2.96777 7.51548 3.0386C7.54356 3.10943 7.58574 3.17382 7.63946 3.22785C7.69318 3.28189 7.75731 3.32445 7.82798 3.35295C7.89864 3.38145 7.97436 3.3953 8.05054 3.39365C8.12672 3.392 8.20176 3.3749 8.27113 3.34337C8.3405 3.31184 8.40273 3.26655 8.45407 3.21024C8.59469 3.06961 8.84125 2.99836 9.18297 2.99836C9.6986 2.99836 10.1205 3.33492 10.1205 3.74836V3.95414C9.82661 3.81854 9.50661 3.74894 9.18297 3.75024C8.04579 3.75024 7.12047 4.59117 7.12047 5.62524C7.12047 6.6593 8.04579 7.50024 9.18297 7.50024C9.5421 7.50115 9.89605 7.4146 10.2142 7.24805C10.281 7.3487 10.3784 7.42519 10.492 7.4662C10.6056 7.50721 10.7294 7.51056 10.8451 7.47576C10.9607 7.44096 11.0621 7.36985 11.1342 7.27295C11.2063 7.17606 11.2453 7.05852 11.2455 6.93774V3.75024C11.2455 2.71617 10.3202 1.87524 9.18297 1.87524ZM9.18297 6.37524C8.66735 6.37524 8.24547 6.03867 8.24547 5.62524C8.24547 5.2118 8.66735 4.87524 9.18297 4.87524C9.6986 4.87524 10.1205 5.2118 10.1205 5.62524C10.1205 6.03867 9.6986 6.37524 9.18297 6.37524Z" fill="#878F98"/>
  </g>
</svg>
