<svg preserveAspectRatio="none" width="100%" height="100%" overflow="visible" style="display: block;" viewBox="0 0 60 60" fill="none" xmlns="http://www.w3.org/2000/svg">
<g id="ArrowUpRight">
<path id="Vector" d="M47.81 15V39.375C47.81 40.1209 47.5136 40.8363 46.9862 41.3637C46.4587 41.8912 45.7434 42.1875 44.9975 42.1875C44.2515 42.1875 43.5362 41.8912 43.0087 41.3637C42.4813 40.8363 42.185 40.1209 42.185 39.375V21.7969L16.9873 46.9898C16.4589 47.5182 15.7423 47.815 14.9951 47.815C14.2479 47.815 13.5313 47.5182 13.0029 46.9898C12.4746 46.4615 12.1777 45.7449 12.1777 44.9977C12.1777 44.2504 12.4746 43.5338 13.0029 43.0055L38.2006 17.8125H20.6225C19.8765 17.8125 19.1612 17.5162 18.6337 16.9887C18.1063 16.4613 17.81 15.7459 17.81 15C17.81 14.2541 18.1063 13.5387 18.6337 13.0113C19.1612 12.4838 19.8765 12.1875 20.6225 12.1875H44.9975C45.7434 12.1875 46.4587 12.4838 46.9862 13.0113C47.5136 13.5387 47.81 14.2541 47.81 15Z" fill="#0073FF"/>
</g>
</svg>
